<svg width="182" height="138" viewBox="0 0 182 138" fill="none" xmlns="http://www.w3.org/2000/svg">
<g opacity="0.2" clip-path="url(#clip0_2_558)">
<path d="M95.7128 133.735L93.548 128.078H93.513C93.5538 128.526 93.5742 129.059 93.5742 129.676V133.735H92.8889V127.354H94.0062L96.027 132.617H96.0619L98.1002 127.354H99.2088V133.735H98.4668V129.623C98.4668 129.152 98.4872 128.64 98.5279 128.087H98.493L96.3107 133.735H95.7128Z" fill="white"/>
<path d="M103.796 133.735L103.652 133.054H103.617C103.378 133.353 103.14 133.557 102.901 133.665C102.666 133.77 102.37 133.822 102.015 133.822C101.541 133.822 101.168 133.7 100.898 133.455C100.63 133.211 100.496 132.863 100.496 132.412C100.496 131.446 101.269 130.94 102.814 130.893L103.626 130.867V130.57C103.626 130.195 103.544 129.919 103.381 129.741C103.221 129.561 102.964 129.47 102.609 129.47C102.21 129.47 101.759 129.593 101.256 129.837L101.033 129.283C101.269 129.155 101.526 129.054 101.806 128.982C102.088 128.909 102.37 128.873 102.652 128.873C103.223 128.873 103.645 128.999 103.918 129.252C104.195 129.505 104.333 129.911 104.333 130.47V133.735H103.796ZM102.159 133.224C102.61 133.224 102.964 133.1 103.22 132.853C103.479 132.606 103.608 132.259 103.608 131.814V131.382L102.884 131.413C102.308 131.433 101.892 131.523 101.635 131.683C101.382 131.84 101.256 132.086 101.256 132.421C101.256 132.683 101.334 132.882 101.491 133.019C101.651 133.156 101.874 133.224 102.159 133.224Z" fill="white"/>
<path d="M108.012 128.864C108.225 128.864 108.415 128.881 108.584 128.916L108.483 129.588C108.286 129.545 108.111 129.523 107.96 129.523C107.573 129.523 107.241 129.68 106.965 129.994C106.691 130.308 106.554 130.7 106.554 131.168V133.735H105.83V128.951H106.428L106.511 129.837H106.546C106.723 129.526 106.937 129.286 107.187 129.117C107.437 128.948 107.712 128.864 108.012 128.864Z" fill="white"/>
<path d="M159.643 133.735L157.478 128.078H157.443C157.484 128.526 157.504 129.059 157.504 129.676V133.735H156.819V127.354H157.936L159.957 132.617H159.992L162.03 127.354H163.139V133.735H162.397V129.623C162.397 129.152 162.417 128.64 162.458 128.087H162.423L160.241 133.735H159.643Z" fill="white"/>
<path d="M167.726 133.735L167.582 133.054H167.547C167.309 133.353 167.07 133.557 166.831 133.665C166.596 133.77 166.3 133.822 165.945 133.822C165.471 133.822 165.099 133.7 164.828 133.455C164.56 133.211 164.427 132.863 164.427 132.412C164.427 131.446 165.199 130.94 166.744 130.893L167.556 130.867V130.57C167.556 130.195 167.474 129.919 167.312 129.741C167.152 129.561 166.894 129.47 166.539 129.47C166.14 129.47 165.689 129.593 165.186 129.837L164.963 129.283C165.199 129.155 165.457 129.054 165.736 128.982C166.018 128.909 166.3 128.873 166.583 128.873C167.153 128.873 167.575 128.999 167.848 129.252C168.125 129.505 168.263 129.911 168.263 130.47V133.735H167.726ZM166.089 133.224C166.54 133.224 166.894 133.1 167.15 132.853C167.409 132.606 167.538 132.259 167.538 131.814V131.382L166.814 131.413C166.238 131.433 165.822 131.523 165.566 131.683C165.313 131.84 165.186 132.086 165.186 132.421C165.186 132.683 165.265 132.882 165.422 133.019C165.582 133.156 165.804 133.224 166.089 133.224Z" fill="white"/>
<path d="M169.001 128.951H169.778L170.825 131.679C171.055 132.302 171.197 132.751 171.253 133.028H171.288C171.325 132.879 171.404 132.626 171.523 132.268C171.646 131.907 172.041 130.802 172.71 128.951H173.487L171.432 134.398C171.228 134.936 170.989 135.317 170.716 135.542C170.445 135.768 170.112 135.882 169.716 135.882C169.495 135.882 169.277 135.857 169.062 135.808V135.227C169.222 135.262 169.401 135.28 169.599 135.28C170.096 135.28 170.451 135 170.664 134.442L170.93 133.761L169.001 128.951Z" fill="white"/>
<path d="M130.035 133.735L129.24 131.705H126.683L125.897 133.735H125.146L127.669 127.327H128.293L130.803 133.735H130.035ZM129.009 131.037L128.267 129.06C128.171 128.81 128.072 128.503 127.97 128.139C127.906 128.419 127.815 128.726 127.695 129.06L126.945 131.037H129.009Z" fill="white"/>
<path d="M133.797 133.822C133.486 133.822 133.201 133.765 132.942 133.652C132.686 133.535 132.47 133.358 132.296 133.119H132.243C132.278 133.398 132.296 133.663 132.296 133.914V135.882H131.571V128.951H132.16L132.261 129.606H132.296C132.482 129.344 132.699 129.155 132.946 129.038C133.193 128.922 133.477 128.864 133.797 128.864C134.431 128.864 134.92 129.08 135.264 129.514C135.61 129.948 135.783 130.556 135.783 131.338C135.783 132.124 135.607 132.735 135.255 133.172C134.906 133.605 134.42 133.822 133.797 133.822ZM133.692 129.479C133.203 129.479 132.85 129.614 132.632 129.885C132.413 130.156 132.301 130.586 132.296 131.177V131.338C132.296 132.011 132.408 132.492 132.632 132.783C132.856 133.071 133.215 133.215 133.71 133.215C134.123 133.215 134.446 133.048 134.679 132.713C134.914 132.379 135.032 131.917 135.032 131.33C135.032 130.733 134.914 130.276 134.679 129.959C134.446 129.639 134.117 129.479 133.692 129.479Z" fill="white"/>
<path d="M139.235 128.864C139.448 128.864 139.638 128.881 139.807 128.916L139.707 129.588C139.509 129.545 139.334 129.523 139.183 129.523C138.796 129.523 138.464 129.68 138.188 129.994C137.914 130.308 137.778 130.7 137.778 131.168V133.735H137.053V128.951H137.651L137.734 129.837H137.769C137.946 129.526 138.16 129.286 138.41 129.117C138.661 128.948 138.936 128.864 139.235 128.864Z" fill="white"/>
<path d="M62.2419 133.735H61.4999V127.354H65.057V128.013H62.2419V130.348H64.8868V131.007H62.2419V133.735Z" fill="white"/>
<path d="M68.0293 133.822C67.3222 133.822 66.7636 133.607 66.3533 133.176C65.9459 132.745 65.7423 132.147 65.7423 131.382C65.7423 130.611 65.9314 129.999 66.3096 129.545C66.6908 129.091 67.2015 128.864 67.8416 128.864C68.441 128.864 68.9153 129.062 69.2645 129.457C69.6136 129.85 69.7882 130.37 69.7882 131.015V131.474H66.493C66.5075 132.035 66.6486 132.462 66.9163 132.753C67.1869 133.044 67.5666 133.189 68.0555 133.189C68.5705 133.189 69.0797 133.081 69.5831 132.866V133.512C69.327 133.623 69.084 133.701 68.8542 133.748C68.6272 133.797 68.3523 133.822 68.0293 133.822ZM67.8329 129.47C67.4488 129.47 67.1418 129.596 66.912 129.846C66.685 130.096 66.5512 130.442 66.5104 130.885H69.0113C69.0113 130.428 68.9095 130.079 68.7058 129.837C68.5021 129.593 68.2111 129.47 67.8329 129.47Z" fill="white"/>
<path d="M73.2537 128.872C73.8822 128.872 74.3695 129.088 74.7158 129.518C75.0649 129.946 75.2395 130.553 75.2395 131.338C75.2395 132.124 75.0635 132.735 74.7114 133.172C74.3623 133.605 73.8763 133.822 73.2537 133.822C72.9423 133.822 72.6572 133.765 72.3982 133.652C72.1421 133.535 71.9268 133.358 71.7522 133.119H71.6999L71.5471 133.735H71.0277V126.943H71.7522V128.593C71.7522 128.963 71.7406 129.294 71.7173 129.588H71.7522C72.0898 129.111 72.5902 128.872 73.2537 128.872ZM73.1489 129.479C72.6543 129.479 72.2978 129.622 72.0796 129.907C71.8614 130.189 71.7522 130.666 71.7522 131.338C71.7522 132.011 71.8643 132.492 72.0883 132.783C72.3124 133.071 72.6717 133.215 73.1664 133.215C73.6115 133.215 73.9433 133.054 74.1615 132.731C74.3797 132.405 74.4888 131.938 74.4888 131.33C74.4888 130.707 74.3797 130.243 74.1615 129.937C73.9433 129.632 73.6057 129.479 73.1489 129.479Z" fill="white"/>
<path d="M29.5217 135.415C29.2482 135.415 29.0329 135.376 28.8757 135.297V134.664C29.0823 134.722 29.2977 134.752 29.5217 134.752C29.8098 134.752 30.028 134.664 30.1764 134.49C30.3277 134.315 30.4033 134.063 30.4033 133.735V127.354H31.1453V133.674C31.1453 134.226 31.0057 134.654 30.7263 134.957C30.447 135.262 30.0454 135.415 29.5217 135.415Z" fill="white"/>
<path d="M35.6757 133.735L35.5317 133.054H35.4968C35.2582 133.353 35.0196 133.557 34.781 133.665C34.5453 133.77 34.25 133.822 33.895 133.822C33.4207 133.822 33.0483 133.7 32.7777 133.455C32.51 133.211 32.3761 132.863 32.3761 132.412C32.3761 131.446 33.1486 130.94 34.6937 130.893L35.5055 130.867V130.57C35.5055 130.195 35.424 129.919 35.2611 129.741C35.1011 129.561 34.8435 129.47 34.4886 129.47C34.0899 129.47 33.6389 129.593 33.1356 129.837L32.913 129.283C33.1486 129.155 33.4062 129.054 33.6855 128.982C33.9677 128.909 34.25 128.873 34.5322 128.873C35.1025 128.873 35.5244 128.999 35.7979 129.252C36.0744 129.505 36.2126 129.911 36.2126 130.47V133.735H35.6757ZM34.039 133.224C34.49 133.224 34.8435 133.1 35.0996 132.853C35.3586 132.606 35.488 132.259 35.488 131.814V131.382L34.7635 131.413C34.1874 131.433 33.7713 131.523 33.5153 131.683C33.2621 131.84 33.1356 132.086 33.1356 132.421C33.1356 132.683 33.2141 132.882 33.3712 133.019C33.5313 133.156 33.7539 133.224 34.039 133.224Z" fill="white"/>
<path d="M40.983 133.735V130.64C40.983 130.25 40.8943 129.959 40.7168 129.767C40.5393 129.575 40.2614 129.479 39.8832 129.479C39.3827 129.479 39.0161 129.614 38.7833 129.885C38.5505 130.156 38.4341 130.602 38.4341 131.225V133.735H37.7096V128.951H38.2988L38.4167 129.606H38.4516C38.6 129.37 38.808 129.188 39.0757 129.06C39.3434 128.929 39.6417 128.864 39.9704 128.864C40.5466 128.864 40.9801 129.003 41.2711 129.283C41.5621 129.559 41.7075 130.003 41.7075 130.614V133.735H40.983Z" fill="white"/>
</g>
<g opacity="0.1">
<path fill-rule="evenodd" clip-rule="evenodd" d="M181.702 54.7901H20.8074V54.3431H181.702V54.7901Z" fill="#EDE9F2"/>
<path fill-rule="evenodd" clip-rule="evenodd" d="M181.702 10.0971H20.8074V9.65015H181.702V10.0971Z" fill="#EDE9F2"/>
<path fill-rule="evenodd" clip-rule="evenodd" d="M181.702 32.4435H20.8074V31.9966H181.702V32.4435Z" fill="#EDE9F2"/>
<path fill-rule="evenodd" clip-rule="evenodd" d="M181.702 77.1366H20.8074V76.6897H181.702V77.1366Z" fill="#EDE9F2"/>
<path fill-rule="evenodd" clip-rule="evenodd" d="M181.702 99.4832H20.8074V99.0363H181.702V99.4832Z" fill="#EDE9F2"/>
<path fill-rule="evenodd" clip-rule="evenodd" d="M181.702 121.83H20.8074V121.383H181.702V121.83Z" fill="#EDE9F2"/>
</g>
<g opacity="0.2" clip-path="url(#clip1_2_558)">
<path d="M8.28117 25.3618C8.86311 25.3618 9.32429 25.4971 9.66473 25.7677C10.0052 26.0383 10.1754 26.4122 10.1754 26.8894C10.1754 27.2037 10.0779 27.4903 9.88296 27.7492C9.68801 28.0082 9.37667 28.2439 8.94894 28.4563C9.46687 28.7036 9.83495 28.964 10.0532 29.2375C10.2714 29.5081 10.3805 29.8224 10.3805 30.1803C10.3805 30.7099 10.1958 31.1332 9.82622 31.4504C9.45669 31.7646 8.9504 31.9217 8.30735 31.9217C7.62648 31.9217 7.10274 31.7733 6.73611 31.4766C6.36949 31.1769 6.18618 30.7535 6.18618 30.2065C6.18618 29.4761 6.63136 28.9073 7.52173 28.4999C7.12019 28.273 6.83213 28.0286 6.65755 27.7667C6.48297 27.5019 6.39568 27.2066 6.39568 26.8807C6.39568 26.418 6.5659 26.05 6.90633 25.7764C7.24968 25.5 7.70795 25.3618 8.28117 25.3618ZM6.90197 30.2239C6.90197 30.5731 7.02272 30.8452 7.26423 31.0401C7.50864 31.2351 7.85053 31.3325 8.2899 31.3325C8.72344 31.3325 9.06097 31.2307 9.30247 31.027C9.54398 30.8233 9.66473 30.544 9.66473 30.189C9.66473 29.9068 9.55125 29.6565 9.3243 29.4383C9.09734 29.2172 8.70162 29.0033 8.13714 28.7967C7.70359 28.9829 7.38934 29.1895 7.19439 29.4165C6.99944 29.6405 6.90197 29.9097 6.90197 30.2239ZM8.27244 25.951C7.90872 25.951 7.62357 26.0383 7.41698 26.2129C7.2104 26.3875 7.1071 26.6203 7.1071 26.9112C7.1071 27.1789 7.19294 27.4088 7.36461 27.6008C7.53628 27.7929 7.85344 27.9849 8.31608 28.177C8.73217 28.0024 9.02605 27.8147 9.19772 27.6139C9.37231 27.4132 9.4596 27.1789 9.4596 26.9112C9.4596 26.6174 9.35339 26.3846 9.14098 26.2129C8.93149 26.0383 8.64197 25.951 8.27244 25.951Z" fill="white"/>
<path d="M16.3338 31.8345H15.4609L13.1346 28.74L12.4668 29.3336V31.8345H11.7248V25.4535H12.4668V28.6178L15.3605 25.4535H16.2378L13.6714 28.225L16.3338 31.8345Z" fill="white"/>
<path d="M10.3631 98.8741H6.16872V98.25L7.84907 96.5609C8.36118 96.043 8.6987 95.6735 8.86165 95.4523C9.02459 95.2312 9.1468 95.0159 9.22827 94.8064C9.30974 94.5969 9.35048 94.3714 9.35048 94.1299C9.35048 93.7894 9.24718 93.5203 9.04059 93.3224C8.834 93.1216 8.5474 93.0213 8.18078 93.0213C7.91599 93.0213 7.6643 93.0649 7.42571 93.1522C7.19002 93.2395 6.92669 93.3981 6.63572 93.6279L6.25164 93.1347C6.8394 92.6459 7.47954 92.4015 8.17205 92.4015C8.77145 92.4015 9.24136 92.5557 9.5818 92.8641C9.92223 93.1697 10.0925 93.5814 10.0925 94.0993C10.0925 94.5038 9.97897 94.9038 9.75202 95.2996C9.52506 95.6953 9.10024 96.1957 8.47757 96.801L7.08091 98.1671V98.202H10.3631V98.8741Z" fill="white"/>
<path d="M16.3338 98.8741H15.4609L13.1345 95.7797L12.4668 96.3732V98.8741H11.7248V92.4931H12.4668V95.6574L15.3605 92.4931H16.2377L13.6714 95.2646L16.3338 98.8741Z" fill="white"/>
<path d="M15.8886 118.021C15.8886 119.124 15.714 119.948 15.3648 120.492C15.0186 121.036 14.4876 121.308 13.7718 121.308C13.0851 121.308 12.5628 121.03 12.2049 120.474C11.847 119.916 11.6681 119.098 11.6681 118.021C11.6681 116.91 11.8412 116.085 12.1874 115.547C12.5337 115.008 13.0618 114.739 13.7718 114.739C14.4643 114.739 14.9895 115.02 15.3474 115.582C15.7082 116.143 15.8886 116.956 15.8886 118.021ZM12.4013 118.021C12.4013 118.95 12.5104 119.626 12.7286 120.051C12.9469 120.473 13.2946 120.684 13.7718 120.684C14.2548 120.684 14.6039 120.47 14.8193 120.042C15.0375 119.612 15.1466 118.938 15.1466 118.021C15.1466 117.105 15.0375 116.434 14.8193 116.009C14.6039 115.582 14.2548 115.368 13.7718 115.368C13.2946 115.368 12.9469 115.579 12.7286 116.001C12.5104 116.42 12.4013 117.093 12.4013 118.021Z" fill="white"/>
<path d="M6.24292 51.4533C6.24292 50.1992 6.48588 49.2623 6.9718 48.6425C7.46063 48.0198 8.18224 47.7085 9.13662 47.7085C9.46542 47.7085 9.72438 47.7361 9.91351 47.7914V48.4156C9.68946 48.3428 9.43341 48.3064 9.14535 48.3064C8.46157 48.3064 7.93928 48.5203 7.57847 48.948C7.21767 49.3728 7.01981 50.0421 6.98489 50.9557H7.03727C7.35734 50.4553 7.86362 50.205 8.55613 50.205C9.12935 50.205 9.58035 50.3781 9.90915 50.7244C10.2409 51.0707 10.4067 51.5406 10.4067 52.1342C10.4067 52.7976 10.2248 53.3199 9.86114 53.701C9.50033 54.0793 9.0115 54.2684 8.39465 54.2684C7.73414 54.2684 7.2104 54.0211 6.82341 53.5264C6.43642 53.0289 6.24292 52.3378 6.24292 51.4533ZM8.38592 53.653C8.79909 53.653 9.11916 53.5235 9.34612 53.2646C9.57598 53.0027 9.69092 52.6259 9.69092 52.1342C9.69092 51.7122 9.58471 51.3805 9.37231 51.139C9.1599 50.8975 8.84274 50.7768 8.42083 50.7768C8.15896 50.7768 7.91891 50.8306 7.70068 50.9383C7.48245 51.0459 7.30787 51.1943 7.17693 51.3835C7.04891 51.5726 6.98489 51.769 6.98489 51.9727C6.98489 52.2724 7.04309 52.5517 7.15948 52.8107C7.27586 53.0696 7.44026 53.2748 7.65267 53.4261C7.86799 53.5774 8.1124 53.653 8.38592 53.653Z" fill="white"/>
<path d="M16.3338 54.1811H15.4609L13.1346 51.0867L12.4668 51.6802V54.1811H11.7248V47.8002H12.4668V50.9645L15.3605 47.8002H16.2378L13.6714 50.5716L16.3338 54.1811Z" fill="white"/>
<path d="M3.73765 9.48808H3.03059V4.94021C3.03059 4.56195 3.04223 4.20406 3.06551 3.86653C3.00441 3.92763 2.93603 3.99165 2.86038 4.05857C2.78472 4.12549 2.43847 4.40919 1.82161 4.90966L1.43753 4.4121L3.12661 3.1071H3.73765V9.48808Z" fill="white"/>
<path d="M10.398 6.28886C10.398 7.39164 10.2234 8.21508 9.87421 8.7592C9.52796 9.30331 8.99694 9.57537 8.28115 9.57537C7.59446 9.57537 7.07217 9.29749 6.71428 8.74174C6.35638 8.18308 6.17744 7.36545 6.17744 6.28886C6.17744 5.17735 6.35056 4.35245 6.69682 3.81416C7.04307 3.27586 7.57118 3.00671 8.28115 3.00671C8.97366 3.00671 9.49886 3.2875 9.85676 3.84907C10.2176 4.41065 10.398 5.22391 10.398 6.28886ZM6.91068 6.28886C6.91068 7.21705 7.0198 7.89356 7.23802 8.31838C7.45625 8.74028 7.80396 8.95124 8.28115 8.95124C8.76416 8.95124 9.11333 8.73737 9.32865 8.30965C9.54687 7.87901 9.65599 7.20542 9.65599 6.28886C9.65599 5.3723 9.54687 4.70162 9.32865 4.2768C9.11333 3.84907 8.76416 3.63521 8.28115 3.63521C7.80396 3.63521 7.45625 3.84616 7.23802 4.26807C7.0198 4.68707 6.91068 5.36066 6.91068 6.28886Z" fill="white"/>
<path d="M16.3338 9.48808H15.4608L13.1345 6.39361L12.4668 6.98719V9.48808H11.7248V3.1071H12.4668V6.2714L15.3605 3.1071H16.2377L13.6714 5.87859L16.3338 9.48808Z" fill="white"/>
<path d="M10.6642 75.0611H9.7171V76.5276H9.02314V75.0611H5.91994V74.4282L8.94894 70.1117H9.7171V74.4021H10.6642V75.0611ZM9.02314 74.4021V72.2809C9.02314 71.8648 9.03768 71.3949 9.06678 70.8711H9.03186C8.8922 71.1505 8.76126 71.3818 8.63905 71.5651L6.64445 74.4021H9.02314Z" fill="white"/>
<path d="M16.3338 76.5276H15.4609L13.1345 73.4331L12.4668 74.0267V76.5276H11.7248V70.1466H12.4668V73.3109L15.3605 70.1466H16.2377L13.6714 72.9181L16.3338 76.5276Z" fill="white"/>
</g>
<path d="M97.6795 69.3152C97.6795 67.8343 98.88 66.6337 100.361 66.6337C101.842 66.6337 103.043 67.8343 103.043 69.3152V121.159H97.6795V69.3152Z" fill="#8476AA"/>
<path d="M105 84.5C105 83.1193 106.119 82 107.5 82C108.881 82 110 83.1193 110 84.5V121H105V84.5Z" fill="#99EFD0"/>
<path d="M65.5005 54.1197C65.5005 52.6387 66.701 51.4381 68.182 51.4381C69.663 51.4381 70.8636 52.6387 70.8636 54.1197V121.159H65.5005V54.1197Z" fill="#8476AA"/>
<path d="M73 74.5C73 73.1193 74.1193 72 75.5 72C76.8807 72 78 73.1193 78 74.5V121H73V74.5Z" fill="#99EFD0"/>
<path d="M162.037 16.5775C162.037 15.0965 163.238 13.8959 164.719 13.8959C166.2 13.8959 167.401 15.0965 167.401 16.5775V121.159H162.037V16.5775Z" fill="#8476AA"/>
<path d="M169 47.5C169 46.1193 170.119 45 171.5 45C172.881 45 174 46.1193 174 47.5V121H169V47.5Z" fill="#99EFD0"/>
<path d="M33.3215 89.8741C33.3215 88.3931 34.5221 87.1925 36.0031 87.1925C37.4841 87.1925 38.6846 88.3931 38.6846 89.8741V121.159H33.3215V89.8741Z" fill="#8476AA"/>
<path d="M40 100C40 98.3431 41.3431 97 43 97C44.6569 97 46 98.3431 46 100V121H40V100Z" fill="#99EFD0"/>
<path d="M129.858 28.1977C129.858 26.7167 131.059 25.5161 132.54 25.5161C134.021 25.5161 135.222 26.7167 135.222 28.1977V121.159H129.858V28.1977Z" fill="#8476AA"/>
<path d="M137 55.5C137 54.1193 138.119 53 139.5 53C140.881 53 142 54.1193 142 55.5V121H137V55.5Z" fill="#99EFD0"/>
<defs>
<clipPath id="clip0_2_558">
<rect width="146.593" height="12.5141" fill="white" transform="translate(27.0645 124.735)"/>
</clipPath>
<clipPath id="clip1_2_558">
<rect width="16.0895" height="124.247" fill="white" transform="translate(0.248627 0.488037)"/>
</clipPath>
</defs>
</svg>
