<svg width="2041" height="1112" fill="none" xmlns="http://www.w3.org/2000/svg"><g opacity=".3" clip-path="url(#clip0_3_9816)"><path d="M203.057 800.103c73.614 0 133.29-59.676 133.29-133.29 0-73.614-59.676-133.29-133.29-133.29-73.614 0-133.29 59.676-133.29 133.29 0 73.614 59.676 133.29 133.29 133.29z" fill="url(#paint0_radial_3_9816)"/><path d="M1358.88 936.585c0-8.595-6.97-15.566-15.57-15.566-8.59 0-15.59 6.971-15.59 15.566s6.97 15.594 15.59 15.594c8.6 0 15.57-6.999 15.57-15.594z" fill="url(#paint1_radial_3_9816)"/><path d="M2040.98 28.976c0-8.595-6.97-15.594-15.57-15.594-8.59 0-15.59 6.971-15.59 15.594 0 8.595 6.97 15.594 15.59 15.594 8.6-.028 15.57-6.999 15.57-15.594z" fill="url(#paint2_radial_3_9816)"/><path d="M352.696 95.915a6.999 6.999 0 100-13.998 7 7 0 000 13.998z" fill="url(#paint3_radial_3_9816)"/><path d="M971.385 643.24a6.999 6.999 0 100-13.998 6.999 6.999 0 000 13.998z" fill="url(#paint4_radial_3_9816)"/><path d="M1812.22 111.733c3.87 0 7-3.134 7-6.999 0-3.866-3.13-7-7-7-3.86 0-7 3.134-7 7a7.004 7.004 0 007 6.999z" fill="url(#paint5_radial_3_9816)"/><path d="M1425.48 450.543c0-8.595-6.97-15.594-15.59-15.594-8.6 0-15.59 6.971-15.59 15.594 0 8.595 6.97 15.594 15.59 15.594 8.59-.028 15.59-6.999 15.59-15.594z" fill="url(#paint6_radial_3_9816)"/><path opacity=".2" d="M709.06 341.386c0-8.595-6.971-15.594-15.594-15.594-8.595 0-15.594 6.971-15.594 15.594 0 8.595 6.971 15.594 15.594 15.594 8.623-.028 15.594-6.999 15.594-15.594z" fill="url(#paint7_radial_3_9816)"/><path opacity=".2" d="M124.527 341.386c0-8.595-6.971-15.594-15.594-15.594-8.595 0-15.594 6.971-15.594 15.594 0 8.595 6.971 15.594 15.594 15.594 8.595-.028 15.594-6.999 15.594-15.594z" fill="url(#paint8_radial_3_9816)"/><path opacity=".2" d="M1529.57 780.002c0-8.595-6.97-15.566-15.59-15.566-8.6 0-15.57 6.971-15.57 15.566s6.97 15.594 15.57 15.594c8.62-.028 15.59-6.999 15.59-15.594z" fill="url(#paint9_radial_3_9816)"/><path opacity=".2" d="M1010.83 905.426c0-8.595-6.97-15.566-15.565-15.566-8.594 0-15.594 6.971-15.594 15.566s6.972 15.594 15.594 15.594c8.595 0 15.565-6.999 15.565-15.594z" fill="url(#paint10_radial_3_9816)"/><path opacity=".2" d="M259.385 494.805c0-8.595-6.971-15.594-15.594-15.594-8.595 0-15.594 6.971-15.594 15.594 0 8.595 6.971 15.594 15.594 15.594 8.623-.028 15.594-6.999 15.594-15.594z" fill="url(#paint11_radial_3_9816)"/><path opacity=".2" d="M1996.3 400.01c0-8.595-6.97-15.594-15.6-15.594-8.62 0-15.56 6.971-15.56 15.594 0 8.595 6.97 15.594 15.56 15.594 8.6 0 15.6-6.971 15.6-15.594z" fill="url(#paint12_radial_3_9816)"/><path d="M673.281 974.997c0-8.595-6.971-15.566-15.566-15.566s-15.594 6.971-15.594 15.566c0 8.594 6.971 15.593 15.594 15.593 8.595 0 15.566-6.971 15.566-15.593z" fill="url(#paint13_radial_3_9816)"/><path d="M1906.23 606.09c0-8.594-6.97-15.566-15.59-15.566-8.59 0-15.57 6.972-15.57 15.566 0 8.595 6.98 15.566 15.57 15.566 8.62 0 15.59-6.971 15.59-15.566z" fill="url(#paint14_radial_3_9816)"/><path d="M1871.74 429.042c0-8.595-6.97-15.594-15.59-15.594-8.6 0-15.57 6.971-15.57 15.594 0 8.595 6.97 15.594 15.57 15.594 8.62-.028 15.59-6.999 15.59-15.594z" fill="url(#paint15_radial_3_9816)"/><path d="M1663.12 163.61c3.86 0 6.99-3.134 6.99-6.999 0-3.866-3.13-6.999-6.99-6.999-3.87 0-7 3.133-7 6.999a6.997 6.997 0 007 6.999z" fill="url(#paint16_radial_3_9816)"/><path d="M468.237 436.041a7 7 0 10-.001-14 7 7 0 00.001 14z" fill="url(#paint17_radial_3_9816)"/><path d="M1259.77 547.242a6.998 6.998 0 00-7-6.999c-3.86 0-6.99 3.136-6.99 6.999 0 3.864 3.13 7 6.99 7 3.9 0 7-3.136 7-7z" fill="url(#paint18_radial_3_9816)"/><path d="M115.932 185.139a6.999 6.999 0 100-13.998 6.999 6.999 0 000 13.998z" fill="url(#paint19_radial_3_9816)"/><path d="M1566 537.164c3.86 0 7-3.134 7-6.999a7.003 7.003 0 00-7-6.999c-3.87 0-7 3.133-7 6.999a6.997 6.997 0 007 6.999z" fill="url(#paint20_radial_3_9816)"/><path d="M1515.46 606.09c3.87 0 7-3.133 7-6.999a6.997 6.997 0 00-7-6.999c-3.86 0-7 3.134-7 6.999a7.003 7.003 0 007 6.999z" fill="url(#paint21_radial_3_9816)"/><path d="M1731.68 744.531c0-8.595-6.97-15.566-15.6-15.566-8.59 0-15.56 6.971-15.56 15.566s6.97 15.594 15.56 15.594c8.63 0 15.6-6.971 15.6-15.594z" fill="url(#paint22_radial_3_9816)"/><path opacity=".2" d="M1472.68 936.053c0-8.595-6.97-15.594-15.59-15.594-8.59 0-15.56 6.971-15.56 15.594 0 8.595 6.97 15.566 15.56 15.566 8.6 0 15.59-6.971 15.59-15.566z" fill="url(#paint23_radial_3_9816)"/><path d="M1681.54 877.289c3.86 0 7-3.134 7-6.999a7.003 7.003 0 00-7-6.999c-3.87 0-7 3.133-7 6.999a6.997 6.997 0 007 6.999z" fill="url(#paint24_radial_3_9816)"/><path d="M1559 848.258c3.86 0 7-3.134 7-6.999a7.003 7.003 0 00-7-6.999c-3.87 0-7 3.133-7 6.999a6.997 6.997 0 007 6.999z" fill="url(#paint25_radial_3_9816)"/><path d="M704.049 434.865a6.999 6.999 0 100-13.998 6.999 6.999 0 000 13.998z" fill="url(#paint26_radial_3_9816)"/><path d="M653.516 503.792a7 7 0 10-.001-14 7 7 0 00.001 14z" fill="url(#paint27_radial_3_9816)"/><path opacity=".2" d="M840.502 15.594C840.502 6.999 833.531 0 824.908 0c-8.594 0-15.593 6.971-15.593 15.594 0 8.595 6.971 15.594 15.593 15.594 8.623-.028 15.594-7 15.594-15.594z" fill="url(#paint28_radial_3_9816)"/><path d="M1191.57 38.158c3.87 0 7-3.133 7-6.998 0-3.866-3.13-7-7-7-3.86 0-6.99 3.134-6.99 7a6.994 6.994 0 006.99 6.998z" fill="url(#paint29_radial_3_9816)"/><path d="M1055.68 97.734c3.87 0 7-3.133 7-6.999a6.997 6.997 0 00-7-6.999c-3.86 0-7 3.134-7 7a7.003 7.003 0 007 6.998z" fill="url(#paint30_radial_3_9816)"/><path d="M835.491 109.073a7 7 0 10-.001-14 7 7 0 00.001 14z" fill="url(#paint31_radial_3_9816)"/><path d="M818.777 662.503a7 7 0 006.999-7 6.999 6.999 0 10-13.998 0 7 7 0 006.999 7z" fill="url(#paint32_radial_3_9816)"/><path opacity=".2" d="M475.852 680.308c0-8.595-6.971-15.594-15.594-15.594-8.595 0-15.594 6.971-15.594 15.594 0 8.595 6.971 15.566 15.594 15.566 8.623.028 15.594-6.943 15.594-15.566z" fill="url(#paint33_radial_3_9816)"/><path opacity=".2" d="M610.737 833.728c0-8.595-6.971-15.566-15.593-15.566-8.623 0-15.594 6.971-15.594 15.566s6.971 15.594 15.594 15.594c8.622 0 15.593-6.971 15.593-15.594z" fill="url(#paint34_radial_3_9816)"/><path d="M697.05 745.96a7 7 0 10-.002-14 7 7 0 00.002 14z" fill="url(#paint35_radial_3_9816)"/><path d="M71.558 903.942c0-19.766-16.014-35.779-35.779-35.779C16.014 868.163 0 884.176 0 903.942c0 19.765 16.014 35.779 35.78 35.779 19.764 0 35.778-16.014 35.778-35.779z" fill="url(#paint36_radial_3_9816)"/><path d="M306.391 893.275c17.209 0 31.159-13.951 31.159-31.16s-13.95-31.159-31.159-31.159c-17.21 0-31.16 13.95-31.16 31.159s13.95 31.16 31.16 31.16z" fill="url(#paint37_radial_3_9816)"/><path d="M701.165 1096.3c0-8.59-6.971-15.56-15.594-15.56-8.595 0-15.594 6.97-15.594 15.56 0 8.6 6.971 15.6 15.594 15.6s15.594-6.97 15.594-15.6z" fill="url(#paint38_radial_3_9816)"/><path opacity=".2" d="M871.858 939.721c0-8.595-6.971-15.566-15.594-15.566-8.595 0-15.594 6.971-15.594 15.566s6.971 15.594 15.594 15.594c8.623-.028 15.594-6.999 15.594-15.594z" fill="url(#paint39_radial_3_9816)"/><path opacity=".2" d="M353.116 1065.14c0-8.59-6.971-15.56-15.594-15.56-8.594 0-15.594 6.97-15.594 15.56 0 8.6 6.972 15.6 15.594 15.6 8.623 0 15.594-6.97 15.594-15.6z" fill="url(#paint40_radial_3_9816)"/><path opacity=".2" d="M680.084 942.352c0-8.595-6.971-15.594-15.594-15.594-8.595 0-15.594 6.971-15.594 15.594s6.971 15.566 15.594 15.566 15.594-6.971 15.594-15.566z" fill="url(#paint41_radial_3_9816)"/><path opacity=".2" d="M814.97 1095.77c0-8.59-6.971-15.59-15.594-15.59-8.595 0-15.594 6.97-15.594 15.59 0 8.6 6.971 15.57 15.594 15.57 8.595 0 15.594-6.97 15.594-15.57z" fill="url(#paint42_radial_3_9816)"/><path d="M901.282 1007.98a7.003 7.003 0 006.999-7 6.999 6.999 0 10-13.998 0c0 3.86 3.134 7 6.999 7z" fill="url(#paint43_radial_3_9816)"/><path d="M671.517 786.106a7 7 0 006.999-7 6.999 6.999 0 10-13.998 0 7 7 0 006.999 7z" fill="url(#paint44_radial_3_9816)"/><path d="M212.015 801.952c0-8.595-6.971-15.566-15.594-15.566-8.594 0-15.593 6.971-15.593 15.566 0 8.594 6.971 15.593 15.593 15.593 8.623 0 15.594-6.971 15.594-15.593z" fill="url(#paint45_radial_3_9816)"/><path d="M161.874 934.71a7 7 0 006.999-7 6.999 6.999 0 10-13.998 0 7 7 0 006.999 7z" fill="url(#paint46_radial_3_9816)"/><path d="M39.335 905.677a6.999 6.999 0 100-13.998 7 7 0 000 13.998z" fill="url(#paint47_radial_3_9816)"/><path d="M1913.91 978.048c19.76 0 35.77-16.019 35.77-35.78 0-19.76-16.01-35.779-35.77-35.779-19.77 0-35.78 16.019-35.78 35.779 0 19.761 16.01 35.78 35.78 35.78z" fill="url(#paint48_radial_3_9816)"/><path d="M1643.32 1015.25c17.21 0 31.16-13.95 31.16-31.156 0-17.209-13.95-31.159-31.16-31.159s-31.16 13.95-31.16 31.159c0 17.206 13.95 31.156 31.16 31.156z" fill="url(#paint49_radial_3_9816)"/><path opacity=".2" d="M1077.83 906.49c0 8.595 6.97 15.566 15.56 15.566 8.6 0 15.6-6.971 15.6-15.566s-6.98-15.594-15.6-15.594c-8.59 0-15.56 6.999-15.56 15.594z" fill="url(#paint50_radial_3_9816)"/><path opacity=".2" d="M1596.57 781.067c0 8.595 6.97 15.566 15.56 15.566 8.6 0 15.57-6.971 15.57-15.566s-6.97-15.566-15.57-15.566c-8.59-.028-15.56 6.943-15.56 15.566z" fill="url(#paint51_radial_3_9816)"/><path opacity=".2" d="M1269.6 903.858c0 8.595 6.97 15.594 15.57 15.594 8.59 0 15.59-6.971 15.59-15.594 0-8.595-6.97-15.566-15.59-15.566-8.6 0-15.57 6.971-15.57 15.566z" fill="url(#paint52_radial_3_9816)"/><path d="M1278.17 1074.1c3.86 0 7-3.13 7-7 0-3.86-3.14-7-7-7-3.87 0-7 3.14-7 7 0 3.87 3.13 7 7 7z" fill="url(#paint53_radial_3_9816)"/><path d="M1737.67 1044.23c0 8.6 6.97 15.59 15.59 15.59 8.6 0 15.57-6.97 15.57-15.59 0-8.59-6.97-15.56-15.57-15.56-8.62 0-15.59 6.97-15.59 15.56z" fill="url(#paint54_radial_3_9816)"/><path d="M1787.81 925.499c3.87 0 7-3.133 7-6.999a6.997 6.997 0 00-7-6.999c-3.87 0-7 3.134-7 6.999a6.997 6.997 0 007 6.999z" fill="url(#paint55_radial_3_9816)"/><path d="M1910.35 954.531c3.86 0 7-3.133 7-6.999a7.004 7.004 0 00-7-6.999c-3.87 0-7 3.134-7 6.999a6.997 6.997 0 007 6.999z" fill="url(#paint56_radial_3_9816)"/><path d="M467.285 524.09a7 7 0 10-.001-14 7 7 0 00.001 14z" fill="url(#paint57_radial_3_9816)"/></g><defs><radialGradient id="paint0_radial_3_9816" cx="0" cy="0" r="1" gradientUnits="userSpaceOnUse" gradientTransform="translate(203.057 666.811) scale(133.277)"><stop offset=".564" stop-color="#DE0000"/><stop offset=".631" stop-color="#DA0000"/><stop offset=".691" stop-color="#D00000"/><stop offset=".747" stop-color="#BE0000"/><stop offset=".802" stop-color="#A40000"/><stop offset=".856" stop-color="#830000"/><stop offset=".908" stop-color="#5B0000"/><stop offset=".959" stop-color="#2C0000"/><stop offset="1"/></radialGradient><radialGradient id="paint1_radial_3_9816" cx="0" cy="0" r="1" gradientUnits="userSpaceOnUse" gradientTransform="translate(1343.3 936.589) scale(15.581)"><stop offset=".564" stop-color="#F50000"/><stop offset=".628" stop-color="#F10000"/><stop offset=".685" stop-color="#E70000"/><stop offset=".739" stop-color="#D50000"/><stop offset=".792" stop-color="#B00"/><stop offset=".843" stop-color="#9A0000"/><stop offset=".893" stop-color="#720000"/><stop offset=".943" stop-color="#420000"/><stop offset=".991" stop-color="#0C0000"/><stop offset="1"/></radialGradient><radialGradient id="paint2_radial_3_9816" cx="0" cy="0" r="1" gradientUnits="userSpaceOnUse" gradientTransform="translate(2025.4 28.974) scale(15.581)"><stop offset=".564" stop-color="#F50000"/><stop offset=".628" stop-color="#F10000"/><stop offset=".685" stop-color="#E70000"/><stop offset=".739" stop-color="#D50000"/><stop offset=".792" stop-color="#B00"/><stop offset=".843" stop-color="#9A0000"/><stop offset=".893" stop-color="#720000"/><stop offset=".943" stop-color="#420000"/><stop offset=".991" stop-color="#0C0000"/><stop offset="1"/></radialGradient><radialGradient id="paint3_radial_3_9816" cx="0" cy="0" r="1" gradientUnits="userSpaceOnUse" gradientTransform="translate(352.707 88.911) scale(6.99904)"><stop offset=".564" stop-color="#F50000"/><stop offset=".628" stop-color="#F10000"/><stop offset=".685" stop-color="#E70000"/><stop offset=".739" stop-color="#D50000"/><stop offset=".792" stop-color="#B00"/><stop offset=".843" stop-color="#9A0000"/><stop offset=".893" stop-color="#720000"/><stop offset=".943" stop-color="#420000"/><stop offset=".991" stop-color="#0C0000"/><stop offset="1"/></radialGradient><radialGradient id="paint4_radial_3_9816" cx="0" cy="0" r="1" gradientUnits="userSpaceOnUse" gradientTransform="translate(971.389 636.245) scale(6.99905)"><stop offset=".564" stop-color="#F50000"/><stop offset=".628" stop-color="#F10000"/><stop offset=".685" stop-color="#E70000"/><stop offset=".739" stop-color="#D50000"/><stop offset=".792" stop-color="#B00"/><stop offset=".843" stop-color="#9A0000"/><stop offset=".893" stop-color="#720000"/><stop offset=".943" stop-color="#420000"/><stop offset=".991" stop-color="#0C0000"/><stop offset="1"/></radialGradient><radialGradient id="paint5_radial_3_9816" cx="0" cy="0" r="1" gradientUnits="userSpaceOnUse" gradientTransform="translate(1812.23 104.745) scale(6.99905)"><stop offset=".564" stop-color="#F50000"/><stop offset=".628" stop-color="#F10000"/><stop offset=".685" stop-color="#E70000"/><stop offset=".739" stop-color="#D50000"/><stop offset=".792" stop-color="#B00"/><stop offset=".843" stop-color="#9A0000"/><stop offset=".893" stop-color="#720000"/><stop offset=".943" stop-color="#420000"/><stop offset=".991" stop-color="#0C0000"/><stop offset="1"/></radialGradient><radialGradient id="paint6_radial_3_9816" cx="0" cy="0" r="1" gradientUnits="userSpaceOnUse" gradientTransform="translate(1409.89 450.536) scale(15.581)"><stop offset=".564" stop-color="#6E008B"/><stop offset=".647" stop-color="#6B0087"/><stop offset=".72" stop-color="#63007D"/><stop offset=".79" stop-color="#54006B"/><stop offset=".858" stop-color="#400051"/><stop offset=".924" stop-color="#260030"/><stop offset=".988" stop-color="#070008"/><stop offset="1"/></radialGradient><radialGradient id="paint7_radial_3_9816" cx="0" cy="0" r="1" gradientUnits="userSpaceOnUse" gradientTransform="translate(693.489 341.374) scale(15.581)"><stop offset=".564" stop-color="#EA8100"/><stop offset=".63" stop-color="#E67F00"/><stop offset=".688" stop-color="#DC7900"/><stop offset=".743" stop-color="#CA6F00"/><stop offset=".796" stop-color="#B06100"/><stop offset=".849" stop-color="#8F4F00"/><stop offset=".9" stop-color="#673900"/><stop offset=".95" stop-color="#371F00"/><stop offset=".999" stop-color="#010100"/><stop offset="1"/></radialGradient><radialGradient id="paint8_radial_3_9816" cx="0" cy="0" r="1" gradientUnits="userSpaceOnUse" gradientTransform="translate(108.937 341.374) scale(15.5807)"><stop offset=".564" stop-color="#EA8100"/><stop offset=".63" stop-color="#E67F00"/><stop offset=".688" stop-color="#DC7900"/><stop offset=".743" stop-color="#CA6F00"/><stop offset=".796" stop-color="#B06100"/><stop offset=".849" stop-color="#8F4F00"/><stop offset=".9" stop-color="#673900"/><stop offset=".95" stop-color="#371F00"/><stop offset=".999" stop-color="#010100"/><stop offset="1"/></radialGradient><radialGradient id="paint9_radial_3_9816" cx="0" cy="0" r="1" gradientUnits="userSpaceOnUse" gradientTransform="translate(1514 779.991) scale(15.581)"><stop offset=".564" stop-color="#EA8100"/><stop offset=".63" stop-color="#E67F00"/><stop offset=".688" stop-color="#DC7900"/><stop offset=".743" stop-color="#CA6F00"/><stop offset=".796" stop-color="#B06100"/><stop offset=".849" stop-color="#8F4F00"/><stop offset=".9" stop-color="#673900"/><stop offset=".95" stop-color="#371F00"/><stop offset=".999" stop-color="#010100"/><stop offset="1"/></radialGradient><radialGradient id="paint10_radial_3_9816" cx="0" cy="0" r="1" gradientUnits="userSpaceOnUse" gradientTransform="translate(995.252 905.427) scale(15.581)"><stop offset=".564" stop-color="#EA8100"/><stop offset=".63" stop-color="#E67F00"/><stop offset=".688" stop-color="#DC7900"/><stop offset=".743" stop-color="#CA6F00"/><stop offset=".796" stop-color="#B06100"/><stop offset=".849" stop-color="#8F4F00"/><stop offset=".9" stop-color="#673900"/><stop offset=".95" stop-color="#371F00"/><stop offset=".999" stop-color="#010100"/><stop offset="1"/></radialGradient><radialGradient id="paint11_radial_3_9816" cx="0" cy="0" r="1" gradientUnits="userSpaceOnUse" gradientTransform="translate(243.802 494.794) scale(15.581)"><stop offset=".564" stop-color="#EA8100"/><stop offset=".63" stop-color="#E67F00"/><stop offset=".688" stop-color="#DC7900"/><stop offset=".743" stop-color="#CA6F00"/><stop offset=".796" stop-color="#B06100"/><stop offset=".849" stop-color="#8F4F00"/><stop offset=".9" stop-color="#673900"/><stop offset=".95" stop-color="#371F00"/><stop offset=".999" stop-color="#010100"/><stop offset="1"/></radialGradient><radialGradient id="paint12_radial_3_9816" cx="0" cy="0" r="1" gradientUnits="userSpaceOnUse" gradientTransform="translate(1980.71 400.016) scale(15.5807)"><stop offset=".564" stop-color="#EA8100"/><stop offset=".63" stop-color="#E67F00"/><stop offset=".688" stop-color="#DC7900"/><stop offset=".743" stop-color="#CA6F00"/><stop offset=".796" stop-color="#B06100"/><stop offset=".849" stop-color="#8F4F00"/><stop offset=".9" stop-color="#673900"/><stop offset=".95" stop-color="#371F00"/><stop offset=".999" stop-color="#010100"/><stop offset="1"/></radialGradient><radialGradient id="paint13_radial_3_9816" cx="0" cy="0" r="1" gradientUnits="userSpaceOnUse" gradientTransform="translate(657.712 975.003) scale(15.5807)"><stop offset=".564" stop-color="#F50000"/><stop offset=".628" stop-color="#F10000"/><stop offset=".685" stop-color="#E70000"/><stop offset=".739" stop-color="#D50000"/><stop offset=".792" stop-color="#B00"/><stop offset=".843" stop-color="#9A0000"/><stop offset=".893" stop-color="#720000"/><stop offset=".943" stop-color="#420000"/><stop offset=".991" stop-color="#0C0000"/><stop offset="1"/></radialGradient><radialGradient id="paint14_radial_3_9816" cx="0" cy="0" r="1" gradientUnits="userSpaceOnUse" gradientTransform="translate(1890.66 606.089) scale(15.5796)"><stop offset=".564" stop-color="#F50000"/><stop offset=".628" stop-color="#F10000"/><stop offset=".685" stop-color="#E70000"/><stop offset=".739" stop-color="#D50000"/><stop offset=".792" stop-color="#B00"/><stop offset=".843" stop-color="#9A0000"/><stop offset=".893" stop-color="#720000"/><stop offset=".943" stop-color="#420000"/><stop offset=".991" stop-color="#0C0000"/><stop offset="1"/></radialGradient><radialGradient id="paint15_radial_3_9816" cx="0" cy="0" r="1" gradientUnits="userSpaceOnUse" gradientTransform="translate(1856.17 429.031) scale(15.581)"><stop offset=".564" stop-color="#F50000"/><stop offset=".628" stop-color="#F10000"/><stop offset=".685" stop-color="#E70000"/><stop offset=".739" stop-color="#D50000"/><stop offset=".792" stop-color="#B00"/><stop offset=".843" stop-color="#9A0000"/><stop offset=".893" stop-color="#720000"/><stop offset=".943" stop-color="#420000"/><stop offset=".991" stop-color="#0C0000"/><stop offset="1"/></radialGradient><radialGradient id="paint16_radial_3_9816" cx="0" cy="0" r="1" gradientUnits="userSpaceOnUse" gradientTransform="translate(1663.11 156.616) scale(6.99905)"><stop offset=".564" stop-color="#7000B2"/><stop offset=".638" stop-color="#6E00AE"/><stop offset=".704" stop-color="#6700A4"/><stop offset=".766" stop-color="#5C0092"/><stop offset=".827" stop-color="#4C0078"/><stop offset=".886" stop-color="#370057"/><stop offset=".943" stop-color="#1E002F"/><stop offset=".999" stop-color="#000001"/><stop offset="1"/></radialGradient><radialGradient id="paint17_radial_3_9816" cx="0" cy="0" r="1" gradientUnits="userSpaceOnUse" gradientTransform="translate(468.25 429.031) scale(6.99905)"><stop offset=".564" stop-color="#7000B2"/><stop offset=".638" stop-color="#6E00AE"/><stop offset=".704" stop-color="#6700A4"/><stop offset=".766" stop-color="#5C0092"/><stop offset=".827" stop-color="#4C0078"/><stop offset=".886" stop-color="#370057"/><stop offset=".943" stop-color="#1E002F"/><stop offset=".999" stop-color="#000001"/><stop offset="1"/></radialGradient><radialGradient id="paint18_radial_3_9816" cx="0" cy="0" r="1" gradientUnits="userSpaceOnUse" gradientTransform="translate(1252.79 547.255) scale(6.99933)"><stop offset=".564" stop-color="#7000B2"/><stop offset=".638" stop-color="#6E00AE"/><stop offset=".704" stop-color="#6700A4"/><stop offset=".766" stop-color="#5C0092"/><stop offset=".827" stop-color="#4C0078"/><stop offset=".886" stop-color="#370057"/><stop offset=".943" stop-color="#1E002F"/><stop offset=".999" stop-color="#000001"/><stop offset="1"/></radialGradient><radialGradient id="paint19_radial_3_9816" cx="0" cy="0" r="1" gradientUnits="userSpaceOnUse" gradientTransform="translate(115.936 178.134) scale(6.99905)"><stop offset=".564" stop-color="#7000B2"/><stop offset=".638" stop-color="#6E00AE"/><stop offset=".704" stop-color="#6700A4"/><stop offset=".766" stop-color="#5C0092"/><stop offset=".827" stop-color="#4C0078"/><stop offset=".886" stop-color="#370057"/><stop offset=".943" stop-color="#1E002F"/><stop offset=".999" stop-color="#000001"/><stop offset="1"/></radialGradient><radialGradient id="paint20_radial_3_9816" cx="0" cy="0" r="1" gradientUnits="userSpaceOnUse" gradientTransform="translate(1566 530.157) scale(6.99905)"><stop offset=".564" stop-color="#F50000"/><stop offset=".628" stop-color="#F10000"/><stop offset=".685" stop-color="#E70000"/><stop offset=".739" stop-color="#D50000"/><stop offset=".792" stop-color="#B00"/><stop offset=".843" stop-color="#9A0000"/><stop offset=".893" stop-color="#720000"/><stop offset=".943" stop-color="#420000"/><stop offset=".991" stop-color="#0C0000"/><stop offset="1"/></radialGradient><radialGradient id="paint21_radial_3_9816" cx="0" cy="0" r="1" gradientUnits="userSpaceOnUse" gradientTransform="translate(1515.46 599.091) scale(6.99905)"><stop offset=".564" stop-color="#F50000"/><stop offset=".628" stop-color="#F10000"/><stop offset=".685" stop-color="#E70000"/><stop offset=".739" stop-color="#D50000"/><stop offset=".792" stop-color="#B00"/><stop offset=".843" stop-color="#9A0000"/><stop offset=".893" stop-color="#720000"/><stop offset=".943" stop-color="#420000"/><stop offset=".991" stop-color="#0C0000"/><stop offset="1"/></radialGradient><radialGradient id="paint22_radial_3_9816" cx="0" cy="0" r="1" gradientUnits="userSpaceOnUse" gradientTransform="translate(1716.1 744.541) scale(15.581)"><stop offset=".564" stop-color="#6E008B"/><stop offset=".647" stop-color="#6B0087"/><stop offset=".72" stop-color="#63007D"/><stop offset=".79" stop-color="#54006B"/><stop offset=".858" stop-color="#400051"/><stop offset=".924" stop-color="#260030"/><stop offset=".988" stop-color="#070008"/><stop offset="1"/></radialGradient><radialGradient id="paint23_radial_3_9816" cx="0" cy="0" r="1" gradientUnits="userSpaceOnUse" gradientTransform="translate(1457.09 936.037) scale(15.581)"><stop offset=".564" stop-color="#EA8100"/><stop offset=".63" stop-color="#E67F00"/><stop offset=".688" stop-color="#DC7900"/><stop offset=".743" stop-color="#CA6F00"/><stop offset=".796" stop-color="#B06100"/><stop offset=".849" stop-color="#8F4F00"/><stop offset=".9" stop-color="#673900"/><stop offset=".95" stop-color="#371F00"/><stop offset=".999" stop-color="#010100"/><stop offset="1"/></radialGradient><radialGradient id="paint24_radial_3_9816" cx="0" cy="0" r="1" gradientUnits="userSpaceOnUse" gradientTransform="translate(1681.54 870.276) scale(6.99905)"><stop offset=".564" stop-color="#7000B2"/><stop offset=".638" stop-color="#6E00AE"/><stop offset=".704" stop-color="#6700A4"/><stop offset=".766" stop-color="#5C0092"/><stop offset=".827" stop-color="#4C0078"/><stop offset=".886" stop-color="#370057"/><stop offset=".943" stop-color="#1E002F"/><stop offset=".999" stop-color="#000001"/><stop offset="1"/></radialGradient><radialGradient id="paint25_radial_3_9816" cx="0" cy="0" r="1" gradientUnits="userSpaceOnUse" gradientTransform="translate(1559 841.264) scale(6.99905)"><stop offset=".564" stop-color="#7000B2"/><stop offset=".638" stop-color="#6E00AE"/><stop offset=".704" stop-color="#6700A4"/><stop offset=".766" stop-color="#5C0092"/><stop offset=".827" stop-color="#4C0078"/><stop offset=".886" stop-color="#370057"/><stop offset=".943" stop-color="#1E002F"/><stop offset=".999" stop-color="#000001"/><stop offset="1"/></radialGradient><radialGradient id="paint26_radial_3_9816" cx="0" cy="0" r="1" gradientUnits="userSpaceOnUse" gradientTransform="translate(704.05 427.853) scale(6.99905)"><stop offset=".564" stop-color="#F50000"/><stop offset=".628" stop-color="#F10000"/><stop offset=".685" stop-color="#E70000"/><stop offset=".739" stop-color="#D50000"/><stop offset=".792" stop-color="#B00"/><stop offset=".843" stop-color="#9A0000"/><stop offset=".893" stop-color="#720000"/><stop offset=".943" stop-color="#420000"/><stop offset=".991" stop-color="#0C0000"/><stop offset="1"/></radialGradient><radialGradient id="paint27_radial_3_9816" cx="0" cy="0" r="1" gradientUnits="userSpaceOnUse" gradientTransform="translate(653.515 496.788) scale(6.99905)"><stop offset=".564" stop-color="#F50000"/><stop offset=".628" stop-color="#F10000"/><stop offset=".685" stop-color="#E70000"/><stop offset=".739" stop-color="#D50000"/><stop offset=".792" stop-color="#B00"/><stop offset=".843" stop-color="#9A0000"/><stop offset=".893" stop-color="#720000"/><stop offset=".943" stop-color="#420000"/><stop offset=".991" stop-color="#0C0000"/><stop offset="1"/></radialGradient><radialGradient id="paint28_radial_3_9816" cx="0" cy="0" r="1" gradientUnits="userSpaceOnUse" gradientTransform="translate(824.919 15.581) scale(15.5813)"><stop offset=".564" stop-color="#EA8100"/><stop offset=".63" stop-color="#E67F00"/><stop offset=".688" stop-color="#DC7900"/><stop offset=".743" stop-color="#CA6F00"/><stop offset=".796" stop-color="#B06100"/><stop offset=".849" stop-color="#8F4F00"/><stop offset=".9" stop-color="#673900"/><stop offset=".95" stop-color="#371F00"/><stop offset=".999" stop-color="#010100"/><stop offset="1"/></radialGradient><radialGradient id="paint29_radial_3_9816" cx="0" cy="0" r="1" gradientUnits="userSpaceOnUse" gradientTransform="translate(1191.57 31.162) scale(6.99905)"><stop offset=".564" stop-color="#7000B2"/><stop offset=".638" stop-color="#6E00AE"/><stop offset=".704" stop-color="#6700A4"/><stop offset=".766" stop-color="#5C0092"/><stop offset=".827" stop-color="#4C0078"/><stop offset=".886" stop-color="#370057"/><stop offset=".943" stop-color="#1E002F"/><stop offset=".999" stop-color="#000001"/><stop offset="1"/></radialGradient><radialGradient id="paint30_radial_3_9816" cx="0" cy="0" r="1" gradientUnits="userSpaceOnUse" gradientTransform="translate(1055.68 90.747) scale(6.99905)"><stop offset=".564" stop-color="#7000B2"/><stop offset=".638" stop-color="#6E00AE"/><stop offset=".704" stop-color="#6700A4"/><stop offset=".766" stop-color="#5C0092"/><stop offset=".827" stop-color="#4C0078"/><stop offset=".886" stop-color="#370057"/><stop offset=".943" stop-color="#1E002F"/><stop offset=".999" stop-color="#000001"/><stop offset="1"/></radialGradient><radialGradient id="paint31_radial_3_9816" cx="0" cy="0" r="1" gradientUnits="userSpaceOnUse" gradientTransform="translate(835.481 102.062) scale(6.99905)"><stop offset=".564" stop-color="#F50000"/><stop offset=".628" stop-color="#F10000"/><stop offset=".685" stop-color="#E70000"/><stop offset=".739" stop-color="#D50000"/><stop offset=".792" stop-color="#B00"/><stop offset=".843" stop-color="#9A0000"/><stop offset=".893" stop-color="#720000"/><stop offset=".943" stop-color="#420000"/><stop offset=".991" stop-color="#0C0000"/><stop offset="1"/></radialGradient><radialGradient id="paint32_radial_3_9816" cx="0" cy="0" r="1" gradientUnits="userSpaceOnUse" gradientTransform="translate(818.766 655.515) scale(6.99905)"><stop offset=".564" stop-color="#F50000"/><stop offset=".628" stop-color="#F10000"/><stop offset=".685" stop-color="#E70000"/><stop offset=".739" stop-color="#D50000"/><stop offset=".792" stop-color="#B00"/><stop offset=".843" stop-color="#9A0000"/><stop offset=".893" stop-color="#720000"/><stop offset=".943" stop-color="#420000"/><stop offset=".991" stop-color="#0C0000"/><stop offset="1"/></radialGradient><radialGradient id="paint33_radial_3_9816" cx="0" cy="0" r="1" gradientUnits="userSpaceOnUse" gradientTransform="translate(460.279 680.315) scale(15.581)"><stop offset=".564" stop-color="#EA8100"/><stop offset=".63" stop-color="#E67F00"/><stop offset=".688" stop-color="#DC7900"/><stop offset=".743" stop-color="#CA6F00"/><stop offset=".796" stop-color="#B06100"/><stop offset=".849" stop-color="#8F4F00"/><stop offset=".9" stop-color="#673900"/><stop offset=".95" stop-color="#371F00"/><stop offset=".999" stop-color="#010100"/><stop offset="1"/></radialGradient><radialGradient id="paint34_radial_3_9816" cx="0" cy="0" r="1" gradientUnits="userSpaceOnUse" gradientTransform="translate(595.145 833.737) scale(15.581)"><stop offset=".564" stop-color="#EA8100"/><stop offset=".63" stop-color="#E67F00"/><stop offset=".688" stop-color="#DC7900"/><stop offset=".743" stop-color="#CA6F00"/><stop offset=".796" stop-color="#B06100"/><stop offset=".849" stop-color="#8F4F00"/><stop offset=".9" stop-color="#673900"/><stop offset=".95" stop-color="#371F00"/><stop offset=".999" stop-color="#010100"/><stop offset="1"/></radialGradient><radialGradient id="paint35_radial_3_9816" cx="0" cy="0" r="1" gradientUnits="userSpaceOnUse" gradientTransform="translate(697.051 738.957) scale(6.99905)"><stop offset=".564" stop-color="#7000B2"/><stop offset=".638" stop-color="#6E00AE"/><stop offset=".704" stop-color="#6700A4"/><stop offset=".766" stop-color="#5C0092"/><stop offset=".827" stop-color="#4C0078"/><stop offset=".886" stop-color="#370057"/><stop offset=".943" stop-color="#1E002F"/><stop offset=".999" stop-color="#000001"/><stop offset="1"/></radialGradient><radialGradient id="paint36_radial_3_9816" cx="0" cy="0" r="1" gradientUnits="userSpaceOnUse" gradientTransform="translate(35.777 903.94) scale(35.7755)"><stop offset=".564" stop-color="#B82B00"/><stop offset=".637" stop-color="#B42A00"/><stop offset=".702" stop-color="#AA2800"/><stop offset=".763" stop-color="#982300"/><stop offset=".823" stop-color="#7E1D00"/><stop offset=".881" stop-color="#5D1600"/><stop offset=".938" stop-color="#350C00"/><stop offset=".994" stop-color="#060100"/><stop offset="1"/></radialGradient><radialGradient id="paint37_radial_3_9816" cx="0" cy="0" r="1" gradientUnits="userSpaceOnUse" gradientTransform="translate(306.378 862.118) scale(31.1623)"><stop offset=".564" stop-color="#B82B00"/><stop offset=".637" stop-color="#B42A00"/><stop offset=".702" stop-color="#AA2800"/><stop offset=".763" stop-color="#982300"/><stop offset=".823" stop-color="#7E1D00"/><stop offset=".881" stop-color="#5D1600"/><stop offset=".938" stop-color="#350C00"/><stop offset=".994" stop-color="#060100"/><stop offset="1"/></radialGradient><radialGradient id="paint38_radial_3_9816" cx="0" cy="0" r="1" gradientUnits="userSpaceOnUse" gradientTransform="translate(685.59 1096.31) scale(15.581)"><stop offset=".564" stop-color="#F50000"/><stop offset=".628" stop-color="#F10000"/><stop offset=".685" stop-color="#E70000"/><stop offset=".739" stop-color="#D50000"/><stop offset=".792" stop-color="#B00"/><stop offset=".843" stop-color="#9A0000"/><stop offset=".893" stop-color="#720000"/><stop offset=".943" stop-color="#420000"/><stop offset=".991" stop-color="#0C0000"/><stop offset="1"/></radialGradient><radialGradient id="paint39_radial_3_9816" cx="0" cy="0" r="1" gradientUnits="userSpaceOnUse" gradientTransform="translate(856.285 939.718) scale(15.581)"><stop offset=".564" stop-color="#EA8100"/><stop offset=".63" stop-color="#E67F00"/><stop offset=".688" stop-color="#DC7900"/><stop offset=".743" stop-color="#CA6F00"/><stop offset=".796" stop-color="#B06100"/><stop offset=".849" stop-color="#8F4F00"/><stop offset=".9" stop-color="#673900"/><stop offset=".95" stop-color="#371F00"/><stop offset=".999" stop-color="#010100"/><stop offset="1"/></radialGradient><radialGradient id="paint40_radial_3_9816" cx="0" cy="0" r="1" gradientUnits="userSpaceOnUse" gradientTransform="translate(337.54 1065.15) scale(15.581)"><stop offset=".564" stop-color="#EA8100"/><stop offset=".63" stop-color="#E67F00"/><stop offset=".688" stop-color="#DC7900"/><stop offset=".743" stop-color="#CA6F00"/><stop offset=".796" stop-color="#B06100"/><stop offset=".849" stop-color="#8F4F00"/><stop offset=".9" stop-color="#673900"/><stop offset=".95" stop-color="#371F00"/><stop offset=".999" stop-color="#010100"/><stop offset="1"/></radialGradient><radialGradient id="paint41_radial_3_9816" cx="0" cy="0" r="1" gradientUnits="userSpaceOnUse" gradientTransform="translate(664.514 942.341) scale(15.5807)"><stop offset=".564" stop-color="#EA8100"/><stop offset=".63" stop-color="#E67F00"/><stop offset=".688" stop-color="#DC7900"/><stop offset=".743" stop-color="#CA6F00"/><stop offset=".796" stop-color="#B06100"/><stop offset=".849" stop-color="#8F4F00"/><stop offset=".9" stop-color="#673900"/><stop offset=".95" stop-color="#371F00"/><stop offset=".999" stop-color="#010100"/><stop offset="1"/></radialGradient><radialGradient id="paint42_radial_3_9816" cx="0" cy="0" r="1" gradientUnits="userSpaceOnUse" gradientTransform="translate(799.38 1095.76) scale(15.581)"><stop offset=".564" stop-color="#EA8100"/><stop offset=".63" stop-color="#E67F00"/><stop offset=".688" stop-color="#DC7900"/><stop offset=".743" stop-color="#CA6F00"/><stop offset=".796" stop-color="#B06100"/><stop offset=".849" stop-color="#8F4F00"/><stop offset=".9" stop-color="#673900"/><stop offset=".95" stop-color="#371F00"/><stop offset=".999" stop-color="#010100"/><stop offset="1"/></radialGradient><radialGradient id="paint43_radial_3_9816" cx="0" cy="0" r="1" gradientUnits="userSpaceOnUse" gradientTransform="translate(901.287 1000.99) scale(6.99905)"><stop offset=".564" stop-color="#7000B2"/><stop offset=".638" stop-color="#6E00AE"/><stop offset=".704" stop-color="#6700A4"/><stop offset=".766" stop-color="#5C0092"/><stop offset=".827" stop-color="#4C0078"/><stop offset=".886" stop-color="#370057"/><stop offset=".943" stop-color="#1E002F"/><stop offset=".999" stop-color="#000001"/><stop offset="1"/></radialGradient><radialGradient id="paint44_radial_3_9816" cx="0" cy="0" r="1" gradientUnits="userSpaceOnUse" gradientTransform="translate(671.514 779.103) scale(6.99905)"><stop offset=".564" stop-color="#7000B2"/><stop offset=".638" stop-color="#6E00AE"/><stop offset=".704" stop-color="#6700A4"/><stop offset=".766" stop-color="#5C0092"/><stop offset=".827" stop-color="#4C0078"/><stop offset=".886" stop-color="#370057"/><stop offset=".943" stop-color="#1E002F"/><stop offset=".999" stop-color="#000001"/><stop offset="1"/></radialGradient><radialGradient id="paint45_radial_3_9816" cx="0" cy="0" r="1" gradientUnits="userSpaceOnUse" gradientTransform="translate(196.44 801.967) scale(15.5807)"><stop offset=".564" stop-color="#6E008B"/><stop offset=".647" stop-color="#6B0087"/><stop offset=".72" stop-color="#63007D"/><stop offset=".79" stop-color="#54006B"/><stop offset=".858" stop-color="#400051"/><stop offset=".924" stop-color="#260030"/><stop offset=".988" stop-color="#070008"/><stop offset="1"/></radialGradient><radialGradient id="paint46_radial_3_9816" cx="0" cy="0" r="1" gradientUnits="userSpaceOnUse" gradientTransform="translate(161.879 927.701) scale(6.99905)"><stop offset=".564" stop-color="#7000B2"/><stop offset=".638" stop-color="#6E00AE"/><stop offset=".704" stop-color="#6700A4"/><stop offset=".766" stop-color="#5C0092"/><stop offset=".827" stop-color="#4C0078"/><stop offset=".886" stop-color="#370057"/><stop offset=".943" stop-color="#1E002F"/><stop offset=".999" stop-color="#000001"/><stop offset="1"/></radialGradient><radialGradient id="paint47_radial_3_9816" cx="0" cy="0" r="1" gradientUnits="userSpaceOnUse" gradientTransform="translate(39.338 898.682) scale(6.99905)"><stop offset=".564" stop-color="#7000B2"/><stop offset=".638" stop-color="#6E00AE"/><stop offset=".704" stop-color="#6700A4"/><stop offset=".766" stop-color="#5C0092"/><stop offset=".827" stop-color="#4C0078"/><stop offset=".886" stop-color="#370057"/><stop offset=".943" stop-color="#1E002F"/><stop offset=".999" stop-color="#000001"/><stop offset="1"/></radialGradient><radialGradient id="paint48_radial_3_9816" cx="0" cy="0" r="1" gradientUnits="userSpaceOnUse" gradientTransform="rotate(180 956.955 471.134) scale(35.7772)"><stop offset=".564" stop-color="#B82B00"/><stop offset=".637" stop-color="#B42A00"/><stop offset=".702" stop-color="#AA2800"/><stop offset=".763" stop-color="#982300"/><stop offset=".823" stop-color="#7E1D00"/><stop offset=".881" stop-color="#5D1600"/><stop offset=".938" stop-color="#350C00"/><stop offset=".994" stop-color="#060100"/><stop offset="1"/></radialGradient><radialGradient id="paint49_radial_3_9816" cx="0" cy="0" r="1" gradientUnits="userSpaceOnUse" gradientTransform="rotate(180 821.655 492.044) scale(31.1623)"><stop offset=".564" stop-color="#B82B00"/><stop offset=".637" stop-color="#B42A00"/><stop offset=".702" stop-color="#AA2800"/><stop offset=".763" stop-color="#982300"/><stop offset=".823" stop-color="#7E1D00"/><stop offset=".881" stop-color="#5D1600"/><stop offset=".938" stop-color="#350C00"/><stop offset=".994" stop-color="#060100"/><stop offset="1"/></radialGradient><radialGradient id="paint50_radial_3_9816" cx="0" cy="0" r="1" gradientUnits="userSpaceOnUse" gradientTransform="rotate(180 546.705 453.245) scale(15.581)"><stop offset=".564" stop-color="#EA8100"/><stop offset=".63" stop-color="#E67F00"/><stop offset=".688" stop-color="#DC7900"/><stop offset=".743" stop-color="#CA6F00"/><stop offset=".796" stop-color="#B06100"/><stop offset=".849" stop-color="#8F4F00"/><stop offset=".9" stop-color="#673900"/><stop offset=".95" stop-color="#371F00"/><stop offset=".999" stop-color="#010100"/><stop offset="1"/></radialGradient><radialGradient id="paint51_radial_3_9816" cx="0" cy="0" r="1" gradientUnits="userSpaceOnUse" gradientTransform="rotate(180 806.075 390.528) scale(15.5782)"><stop offset=".564" stop-color="#EA8100"/><stop offset=".63" stop-color="#E67F00"/><stop offset=".688" stop-color="#DC7900"/><stop offset=".743" stop-color="#CA6F00"/><stop offset=".796" stop-color="#B06100"/><stop offset=".849" stop-color="#8F4F00"/><stop offset=".9" stop-color="#673900"/><stop offset=".95" stop-color="#371F00"/><stop offset=".999" stop-color="#010100"/><stop offset="1"/></radialGradient><radialGradient id="paint52_radial_3_9816" cx="0" cy="0" r="1" gradientUnits="userSpaceOnUse" gradientTransform="rotate(180 642.59 451.932) scale(15.581)"><stop offset=".564" stop-color="#EA8100"/><stop offset=".63" stop-color="#E67F00"/><stop offset=".688" stop-color="#DC7900"/><stop offset=".743" stop-color="#CA6F00"/><stop offset=".796" stop-color="#B06100"/><stop offset=".849" stop-color="#8F4F00"/><stop offset=".9" stop-color="#673900"/><stop offset=".95" stop-color="#371F00"/><stop offset=".999" stop-color="#010100"/><stop offset="1"/></radialGradient><radialGradient id="paint53_radial_3_9816" cx="0" cy="0" r="1" gradientUnits="userSpaceOnUse" gradientTransform="rotate(180 639.09 533.55) scale(6.99905)"><stop offset=".564" stop-color="#7000B2"/><stop offset=".638" stop-color="#6E00AE"/><stop offset=".704" stop-color="#6700A4"/><stop offset=".766" stop-color="#5C0092"/><stop offset=".827" stop-color="#4C0078"/><stop offset=".886" stop-color="#370057"/><stop offset=".943" stop-color="#1E002F"/><stop offset=".999" stop-color="#000001"/><stop offset="1"/></radialGradient><radialGradient id="paint54_radial_3_9816" cx="0" cy="0" r="1" gradientUnits="userSpaceOnUse" gradientTransform="rotate(180 876.625 522.12) scale(15.581)"><stop offset=".564" stop-color="#6E008B"/><stop offset=".647" stop-color="#6B0087"/><stop offset=".72" stop-color="#63007D"/><stop offset=".79" stop-color="#54006B"/><stop offset=".858" stop-color="#400051"/><stop offset=".924" stop-color="#260030"/><stop offset=".988" stop-color="#070008"/><stop offset="1"/></radialGradient><radialGradient id="paint55_radial_3_9816" cx="0" cy="0" r="1" gradientUnits="userSpaceOnUse" gradientTransform="rotate(180 893.905 459.255) scale(6.99905)"><stop offset=".564" stop-color="#7000B2"/><stop offset=".638" stop-color="#6E00AE"/><stop offset=".704" stop-color="#6700A4"/><stop offset=".766" stop-color="#5C0092"/><stop offset=".827" stop-color="#4C0078"/><stop offset=".886" stop-color="#370057"/><stop offset=".943" stop-color="#1E002F"/><stop offset=".999" stop-color="#000001"/><stop offset="1"/></radialGradient><radialGradient id="paint56_radial_3_9816" cx="0" cy="0" r="1" gradientUnits="userSpaceOnUse" gradientTransform="rotate(180 955.175 473.762) scale(6.99905)"><stop offset=".564" stop-color="#7000B2"/><stop offset=".638" stop-color="#6E00AE"/><stop offset=".704" stop-color="#6700A4"/><stop offset=".766" stop-color="#5C0092"/><stop offset=".827" stop-color="#4C0078"/><stop offset=".886" stop-color="#370057"/><stop offset=".943" stop-color="#1E002F"/><stop offset=".999" stop-color="#000001"/><stop offset="1"/></radialGradient><radialGradient id="paint57_radial_3_9816" cx="0" cy="0" r="1" gradientUnits="userSpaceOnUse" gradientTransform="translate(467.279 517.077) scale(6.99905)"><stop offset=".564" stop-color="#7000B2"/><stop offset=".638" stop-color="#6E00AE"/><stop offset=".704" stop-color="#6700A4"/><stop offset=".766" stop-color="#5C0092"/><stop offset=".827" stop-color="#4C0078"/><stop offset=".886" stop-color="#370057"/><stop offset=".943" stop-color="#1E002F"/><stop offset=".999" stop-color="#000001"/><stop offset="1"/></radialGradient><clipPath id="clip0_3_9816"><path fill="#fff" d="M0 0h2040.98v1111.9H0z"/></clipPath></defs></svg>